<?xml version="1.0" encoding="UTF-8" standalone="no"?>
<!DOCTYPE svg PUBLIC "-//W3C//DTD SVG 1.1//EN"
 "http://www.w3.org/Graphics/SVG/1.1/DTD/svg11.dtd">
<!-- Generated by graphviz version 2.43.0 (0)
 -->
<!-- Title: G Pages: 1 -->
<svg width="822pt" height="651pt"
 viewBox="0.00 0.00 822.08 650.74" xmlns="http://www.w3.org/2000/svg" xmlns:xlink="http://www.w3.org/1999/xlink">
<g id="graph0" class="graph" transform="scale(1 1) rotate(0) translate(4 646.74)">
<title>G</title>
<polygon fill="white" stroke="transparent" points="-4,4 -4,-646.74 818.08,-646.74 818.08,4 -4,4"/>
<text text-anchor="middle" x="407.04" y="-10.8" font-family="Times,serif" font-size="24.00">Top Degree Nodes</text>
<!-- 0 -->
<g id="node1" class="node">
<title>0</title>
<ellipse fill="none" stroke="black" cx="318.08" cy="-626.48" rx="32.55" ry="16.03"/>
<text text-anchor="middle" x="318.08" y="-622.78" font-family="Times,serif" font-size="14.00">new</text>
</g>
<!-- 1 -->
<g id="node2" class="node">
<title>1</title>
<ellipse fill="none" stroke="black" cx="392.08" cy="-557.95" rx="32.55" ry="16.03"/>
<text text-anchor="middle" x="392.08" y="-554.25" font-family="Times,serif" font-size="14.00">civil</text>
</g>
<!-- 0&#45;&#45;1 -->
<g id="edge1" class="edge">
<title>0&#45;&#45;1</title>
<path fill="none" stroke="black" d="M333.06,-612.02C345.81,-600.55 364.06,-584.15 376.88,-572.62"/>
</g>
<!-- 2 -->
<g id="node3" class="node">
<title>2</title>
<ellipse fill="none" stroke="black" cx="318.08" cy="-489.42" rx="45.92" ry="16.03"/>
<text text-anchor="middle" x="318.08" y="-485.72" font-family="Times,serif" font-size="14.00">human</text>
</g>
<!-- 0&#45;&#45;2 -->
<g id="edge2" class="edge">
<title>0&#45;&#45;2</title>
<path fill="none" stroke="black" d="M318.08,-609.99C318.08,-583.93 318.08,-531.67 318.08,-505.74"/>
</g>
<!-- 3 -->
<g id="node4" class="node">
<title>3</title>
<ellipse fill="none" stroke="black" cx="187.08" cy="-489.42" rx="28.98" ry="16.03"/>
<text text-anchor="middle" x="187.08" y="-485.72" font-family="Times,serif" font-size="14.00">left</text>
</g>
<!-- 0&#45;&#45;3 -->
<g id="edge3" class="edge">
<title>0&#45;&#45;3</title>
<path fill="none" stroke="black" d="M293.53,-615.77C274.33,-607.18 247.97,-593.08 230.08,-574.22 210.96,-554.04 198.27,-523.71 191.91,-505.61"/>
</g>
<!-- 4 -->
<g id="node5" class="node">
<title>4</title>
<ellipse fill="none" stroke="black" cx="464.08" cy="-420.9" rx="40.11" ry="16.03"/>
<text text-anchor="middle" x="464.08" y="-417.2" font-family="Times,serif" font-size="14.00">social</text>
</g>
<!-- 0&#45;&#45;4 -->
<g id="edge4" class="edge">
<title>0&#45;&#45;4</title>
<path fill="none" stroke="black" d="M348.31,-620.22C374.99,-613.95 412.84,-600.78 434.08,-574.22 466.74,-533.38 467.13,-466.96 465.4,-437.19"/>
</g>
<!-- 5 -->
<g id="node6" class="node">
<title>5</title>
<ellipse fill="none" stroke="black" cx="298.08" cy="-352.37" rx="31.64" ry="16.03"/>
<text text-anchor="middle" x="298.08" y="-348.67" font-family="Times,serif" font-size="14.00">rule</text>
</g>
<!-- 0&#45;&#45;5 -->
<g id="edge5" class="edge">
<title>0&#45;&#45;5</title>
<path fill="none" stroke="black" d="M308.75,-610.71C295.5,-588.8 271.88,-545.93 263.08,-505.69 252.07,-455.32 276.69,-395.82 290.11,-368.48"/>
</g>
<!-- 6 -->
<g id="node7" class="node">
<title>6</title>
<ellipse fill="none" stroke="black" cx="92.08" cy="-420.9" rx="48.17" ry="16.03"/>
<text text-anchor="middle" x="92.08" y="-417.2" font-family="Times,serif" font-size="14.00">foreign</text>
</g>
<!-- 0&#45;&#45;6 -->
<g id="edge6" class="edge">
<title>0&#45;&#45;6</title>
<path fill="none" stroke="black" d="M291.08,-617.18C266.93,-608.89 231.38,-594.44 205.08,-574.22 154.19,-535.06 115.27,-467.18 99.61,-437.05"/>
</g>
<!-- 7 -->
<g id="node8" class="node">
<title>7</title>
<ellipse fill="none" stroke="black" cx="215.08" cy="-283.84" rx="77.15" ry="16.03"/>
<text text-anchor="middle" x="215.08" y="-280.14" font-family="Times,serif" font-size="14.00">international</text>
</g>
<!-- 0&#45;&#45;7 -->
<g id="edge7" class="edge">
<title>0&#45;&#45;7</title>
<path fill="none" stroke="black" d="M285.48,-625.52C207.39,-623.74 16.08,-607.45 16.08,-490.42 16.08,-490.42 16.08,-490.42 16.08,-419.9 16.08,-348.5 104.87,-312.23 163.84,-296.01"/>
</g>
<!-- 8 -->
<g id="node9" class="node">
<title>8</title>
<ellipse fill="none" stroke="black" cx="283.08" cy="-215.32" rx="47.25" ry="16.03"/>
<text text-anchor="middle" x="283.08" y="-211.62" font-family="Times,serif" font-size="14.00">journal</text>
</g>
<!-- 0&#45;&#45;8 -->
<g id="edge8" class="edge">
<title>0&#45;&#45;8</title>
<path fill="none" stroke="black" d="M285.72,-624.07C218.28,-620.46 65.89,-608.62 29.08,-574.22 -16.28,-531.82 6.58,-499.08 2.08,-437.16 -4.56,-345.58 38.89,-310.46 120.08,-267.58 159.82,-246.59 209.61,-232.49 243.64,-224.48"/>
</g>
<!-- 10 -->
<g id="node11" class="node">
<title>10</title>
<ellipse fill="none" stroke="black" cx="640.08" cy="-215.32" rx="67.35" ry="16.03"/>
<text text-anchor="middle" x="640.08" y="-211.62" font-family="Times,serif" font-size="14.00">indigenous</text>
</g>
<!-- 0&#45;&#45;10 -->
<g id="edge9" class="edge">
<title>0&#45;&#45;10</title>
<path fill="none" stroke="black" d="M349.93,-623.02C453.79,-614.15 776.08,-579.44 776.08,-490.42 776.08,-490.42 776.08,-490.42 776.08,-419.9 776.08,-381.71 775.33,-369.65 757.08,-336.11 732.63,-291.16 686.5,-251.4 660.06,-230.93"/>
</g>
<!-- 11 -->
<g id="node12" class="node">
<title>11</title>
<ellipse fill="none" stroke="black" cx="719.08" cy="-352.37" rx="28.98" ry="16.03"/>
<text text-anchor="middle" x="719.08" y="-348.67" font-family="Times,serif" font-size="14.00">sao</text>
</g>
<!-- 0&#45;&#45;11 -->
<g id="edge10" class="edge">
<title>0&#45;&#45;11</title>
<path fill="none" stroke="black" d="M350.57,-624.31C420.52,-620.01 586.31,-599.85 676.08,-505.69 712.87,-467.11 718.59,-399.53 719.21,-369.06"/>
</g>
<!-- 12 -->
<g id="node13" class="node">
<title>12</title>
<ellipse fill="none" stroke="black" cx="542.08" cy="-146.79" rx="32.55" ry="16.03"/>
<text text-anchor="middle" x="542.08" y="-143.09" font-family="Times,serif" font-size="14.00">com</text>
</g>
<!-- 0&#45;&#45;12 -->
<g id="edge11" class="edge">
<title>0&#45;&#45;12</title>
<path fill="none" stroke="black" d="M350.02,-623.35C430.53,-617.66 639.96,-600.69 704.08,-574.22 760.89,-550.76 814.08,-551.88 814.08,-490.42 814.08,-490.42 814.08,-490.42 814.08,-282.84 814.08,-176.87 646.4,-154.05 574.35,-149.14"/>
</g>
<!-- 1&#45;&#45;2 -->
<g id="edge12" class="edge">
<title>1&#45;&#45;2</title>
<path fill="none" stroke="black" d="M377.11,-543.49C364.61,-532.25 346.83,-516.27 334.06,-504.79"/>
</g>
<!-- 1&#45;&#45;4 -->
<g id="edge13" class="edge">
<title>1&#45;&#45;4</title>
<path fill="none" stroke="black" d="M400.06,-541.98C413.9,-516.02 442.2,-462.94 456.07,-436.93"/>
</g>
<!-- 1&#45;&#45;5 -->
<g id="edge14" class="edge">
<title>1&#45;&#45;5</title>
<path fill="none" stroke="black" d="M390.19,-541.65C387.71,-524.49 382.52,-496.05 373.08,-473.16 356.15,-432.1 325.67,-389.22 309.26,-367.62"/>
</g>
<!-- 1&#45;&#45;10 -->
<g id="edge15" class="edge">
<title>1&#45;&#45;10</title>
<path fill="none" stroke="black" d="M424.38,-555.5C496.05,-550.36 662.08,-527.12 662.08,-421.9 662.08,-421.9 662.08,-421.9 662.08,-351.37 662.08,-307.42 650.59,-256.46 644.22,-231.58"/>
</g>
<!-- 2&#45;&#45;4 -->
<g id="edge16" class="edge">
<title>2&#45;&#45;4</title>
<path fill="none" stroke="black" d="M345.2,-476.07C371.92,-463.89 412.43,-445.43 438.58,-433.52"/>
</g>
<!-- 2&#45;&#45;5 -->
<g id="edge17" class="edge">
<title>2&#45;&#45;5</title>
<path fill="none" stroke="black" d="M315.79,-472.93C311.93,-446.88 304.19,-394.61 300.35,-368.68"/>
</g>
<!-- 2&#45;&#45;6 -->
<g id="edge18" class="edge">
<title>2&#45;&#45;6</title>
<path fill="none" stroke="black" d="M283.76,-478.32C241.4,-465.85 169.78,-444.77 127.1,-432.21"/>
</g>
<!-- 2&#45;&#45;7 -->
<g id="edge19" class="edge">
<title>2&#45;&#45;7</title>
<path fill="none" stroke="black" d="M310.35,-473.31C298.74,-450.61 276.13,-406.34 257.08,-368.63 245.05,-344.82 231.2,-317.13 222.79,-300.3"/>
</g>
<!-- 2&#45;&#45;8 -->
<g id="edge20" class="edge">
<title>2&#45;&#45;8</title>
<path fill="none" stroke="black" d="M295.93,-475.03C253.85,-448.12 163.46,-382.88 129.08,-300.11 123.54,-286.76 120.63,-279.31 129.08,-267.58 153.31,-233.98 200.49,-222.07 236.28,-218.01"/>
</g>
<!-- 2&#45;&#45;10 -->
<g id="edge21" class="edge">
<title>2&#45;&#45;10</title>
<path fill="none" stroke="black" d="M361.01,-483.28C402.08,-476.98 464.75,-463.69 513.08,-437.16 552.38,-415.59 562.54,-406.15 587.08,-368.63 616.51,-323.65 631.61,-260.46 637.32,-231.68"/>
</g>
<!-- 2&#45;&#45;11 -->
<g id="edge22" class="edge">
<title>2&#45;&#45;11</title>
<path fill="none" stroke="black" d="M363.25,-486.21C420.39,-482.07 520.91,-470.32 600.08,-437.16 641.8,-419.69 683.36,-385.68 704.58,-366.81"/>
</g>
<!-- 2&#45;&#45;12 -->
<g id="edge23" class="edge">
<title>2&#45;&#45;12</title>
<path fill="none" stroke="black" d="M333.49,-473.83C356.23,-450.64 396.08,-402.92 396.08,-353.37 396.08,-353.37 396.08,-353.37 396.08,-282.84 396.08,-217.76 475.24,-175.3 516.99,-157.43"/>
</g>
<!-- 3&#45;&#45;4 -->
<g id="edge24" class="edge">
<title>3&#45;&#45;4</title>
<path fill="none" stroke="black" d="M213.14,-482.17C263.51,-470.07 374.19,-443.49 430.2,-430.04"/>
</g>
<!-- 3&#45;&#45;5 -->
<g id="edge25" class="edge">
<title>3&#45;&#45;5</title>
<path fill="none" stroke="black" d="M192.44,-473.3C199.25,-455.52 212.29,-425.78 230.08,-404.63 243.69,-388.46 263.32,-374.36 277.99,-365.06"/>
</g>
<!-- 3&#45;&#45;6 -->
<g id="edge26" class="edge">
<title>3&#45;&#45;6</title>
<path fill="none" stroke="black" d="M169.66,-476.22C153.37,-464.82 129.08,-447.81 112.03,-435.86"/>
</g>
<!-- 9 -->
<g id="node10" class="node">
<title>9</title>
<ellipse fill="none" stroke="black" cx="438.08" cy="-146.79" rx="48.17" ry="16.03"/>
<text text-anchor="middle" x="438.08" y="-143.09" font-family="Times,serif" font-size="14.00">buenos</text>
</g>
<!-- 3&#45;&#45;9 -->
<g id="edge27" class="edge">
<title>3&#45;&#45;9</title>
<path fill="none" stroke="black" d="M158.06,-488.08C122.38,-485.89 63.1,-476.18 35.08,-437.16 -6.65,-379.04 34.11,-354.81 120.08,-267.58 207.8,-178.59 259.88,-193.44 381.08,-163.05 387.84,-161.36 395.03,-159.49 401.94,-157.65"/>
</g>
<!-- 4&#45;&#45;5 -->
<g id="edge28" class="edge">
<title>4&#45;&#45;5</title>
<path fill="none" stroke="black" d="M436.67,-408.91C404.81,-396.14 352.72,-375.27 322.29,-363.07"/>
</g>
<!-- 4&#45;&#45;7 -->
<g id="edge29" class="edge">
<title>4&#45;&#45;7</title>
<path fill="none" stroke="black" d="M446.16,-406.22C422.51,-388.56 379.17,-357.55 339.08,-336.11 311.05,-321.11 277.65,-307.53 252.59,-298.12"/>
</g>
<!-- 4&#45;&#45;8 -->
<g id="edge30" class="edge">
<title>4&#45;&#45;8</title>
<path fill="none" stroke="black" d="M451.07,-405.26C417.75,-367.79 329.68,-268.72 296.23,-231.1"/>
</g>
<!-- 4&#45;&#45;9 -->
<g id="edge31" class="edge">
<title>4&#45;&#45;9</title>
<path fill="none" stroke="black" d="M462.61,-404.49C458.05,-356.71 444.16,-211.38 439.57,-163.37"/>
</g>
<!-- 4&#45;&#45;10 -->
<g id="edge32" class="edge">
<title>4&#45;&#45;10</title>
<path fill="none" stroke="black" d="M494.28,-409.97C515.49,-401.71 543.31,-388.14 562.08,-368.63 596.56,-332.81 586.84,-311.53 610.08,-267.58 616.54,-255.37 624.46,-241.89 630.54,-231.83"/>
</g>
<!-- 4&#45;&#45;11 -->
<g id="edge33" class="edge">
<title>4&#45;&#45;11</title>
<path fill="none" stroke="black" d="M496.9,-411.34C548.28,-397.93 646.67,-372.26 693.32,-360.09"/>
</g>
<!-- 4&#45;&#45;12 -->
<g id="edge34" class="edge">
<title>4&#45;&#45;12</title>
<path fill="none" stroke="black" d="M468.5,-404.49C482.23,-356.59 524.05,-210.69 537.71,-163.03"/>
</g>
<!-- 5&#45;&#45;7 -->
<g id="edge35" class="edge">
<title>5&#45;&#45;7</title>
<path fill="none" stroke="black" d="M281.69,-338.23C267.89,-327.17 248.17,-311.36 233.77,-299.82"/>
</g>
<!-- 5&#45;&#45;8 -->
<g id="edge36" class="edge">
<title>5&#45;&#45;8</title>
<path fill="none" stroke="black" d="M300.48,-336.11C302.71,-319.22 305.12,-291.26 301.08,-267.58 298.96,-255.12 294.13,-241.66 290,-231.66"/>
</g>
<!-- 5&#45;&#45;10 -->
<g id="edge37" class="edge">
<title>5&#45;&#45;10</title>
<path fill="none" stroke="black" d="M322.4,-341.77C382.53,-318.02 538.24,-256.53 606.82,-229.45"/>
</g>
<!-- 5&#45;&#45;12 -->
<g id="edge38" class="edge">
<title>5&#45;&#45;12</title>
<path fill="none" stroke="black" d="M304.69,-336.23C320.03,-301.64 358.57,-218.36 382.08,-199.05 422.81,-165.6 444.91,-179.19 495.08,-163.05 501.78,-160.9 509.01,-158.56 515.74,-156.37"/>
</g>
<!-- 6&#45;&#45;7 -->
<g id="edge39" class="edge">
<title>6&#45;&#45;7</title>
<path fill="none" stroke="black" d="M105.48,-405.19C129.02,-379.35 177.54,-326.07 201.33,-299.95"/>
</g>
<!-- 7&#45;&#45;8 -->
<g id="edge40" class="edge">
<title>7&#45;&#45;8</title>
<path fill="none" stroke="black" d="M230.51,-267.75C241.8,-256.71 257.02,-241.81 268.18,-230.9"/>
</g>
<!-- 7&#45;&#45;10 -->
<g id="edge41" class="edge">
<title>7&#45;&#45;10</title>
<path fill="none" stroke="black" d="M275.07,-273.45C357.79,-260.51 505.66,-237.36 585.45,-224.87"/>
</g>
<!-- 14 -->
<g id="node15" class="node">
<title>14</title>
<ellipse fill="none" stroke="black" cx="304.08" cy="-78.26" rx="52.15" ry="16.03"/>
<text text-anchor="middle" x="304.08" y="-74.56" font-family="Times,serif" font-size="14.00">journals</text>
</g>
<!-- 7&#45;&#45;14 -->
<g id="edge42" class="edge">
<title>7&#45;&#45;14</title>
<path fill="none" stroke="black" d="M212.12,-267.28C207.44,-238.16 201.29,-174.44 227.08,-130.53 237.49,-112.8 256.74,-99.99 273.39,-91.6"/>
</g>
<!-- 8&#45;&#45;9 -->
<g id="edge43" class="edge">
<title>8&#45;&#45;9</title>
<path fill="none" stroke="black" d="M311.51,-202.12C339.39,-190.15 381.66,-172.01 409.57,-160.03"/>
</g>
<!-- 8&#45;&#45;12 -->
<g id="edge44" class="edge">
<title>8&#45;&#45;12</title>
<path fill="none" stroke="black" d="M319.84,-205.05C327.83,-203.06 336.24,-200.97 344.08,-199.05 411.1,-182.68 428.67,-181.72 495.08,-163.05 501.86,-161.15 509.11,-158.9 515.85,-156.72"/>
</g>
<!-- 10&#45;&#45;12 -->
<g id="edge45" class="edge">
<title>10&#45;&#45;12</title>
<path fill="none" stroke="black" d="M618.82,-199.88C601.48,-188.11 577.23,-171.65 560.66,-160.4"/>
</g>
<!-- 11&#45;&#45;12 -->
<g id="edge46" class="edge">
<title>11&#45;&#45;12</title>
<path fill="none" stroke="black" d="M724.12,-336.07C732.89,-306.28 747.22,-239.84 716.08,-199.05 698.69,-176.27 618.09,-159.97 572.94,-152.45"/>
</g>
<!-- 12&#45;&#45;14 -->
<g id="edge47" class="edge">
<title>12&#45;&#45;14</title>
<path fill="none" stroke="black" d="M515.81,-136.99C509.07,-134.81 501.83,-132.53 495.08,-130.53 442.91,-115.06 382.12,-99.1 343.39,-89.18"/>
</g>
<!-- 13 -->
<g id="node14" class="node">
<title>13</title>
<ellipse fill="none" stroke="black" cx="304.08" cy="-146.79" rx="67.76" ry="16.03"/>
<text text-anchor="middle" x="304.08" y="-143.09" font-family="Times,serif" font-size="14.00">distributed</text>
</g>
<!-- 13&#45;&#45;14 -->
<g id="edge48" class="edge">
<title>13&#45;&#45;14</title>
<path fill="none" stroke="black" d="M304.08,-130.36C304.08,-119.61 304.08,-105.34 304.08,-94.61"/>
</g>
</g>
</svg>
