<?xml version="1.0" encoding="UTF-8" standalone="no"?>
<!DOCTYPE svg PUBLIC "-//W3C//DTD SVG 1.1//EN"
 "http://www.w3.org/Graphics/SVG/1.1/DTD/svg11.dtd">
<!-- Generated by graphviz version 2.43.0 (0)
 -->
<!-- Title: G Pages: 1 -->
<svg width="1966pt" height="1062pt"
 viewBox="0.00 0.00 1966.00 1061.90" xmlns="http://www.w3.org/2000/svg" xmlns:xlink="http://www.w3.org/1999/xlink">
<g id="graph0" class="graph" transform="scale(1 1) rotate(0) translate(4 1057.9)">
<title>G</title>
<polygon fill="white" stroke="transparent" points="-4,4 -4,-1057.9 1962,-1057.9 1962,4 -4,4"/>
<text text-anchor="middle" x="979" y="-10.8" font-family="Times,serif" font-size="24.00">Top Eigenvector Nodes</text>
<!-- 65 -->
<g id="node1" class="node">
<title>65</title>
<ellipse fill="none" stroke="black" cx="570" cy="-626.48" rx="37.45" ry="16.03"/>
<text text-anchor="middle" x="570" y="-622.78" font-family="Times,serif" font-size="14.00">state</text>
</g>
<!-- 237 -->
<g id="node4" class="node">
<title>237</title>
<ellipse fill="none" stroke="black" cx="717" cy="-352.37" rx="72.66" ry="16.03"/>
<text text-anchor="middle" x="717" y="-348.67" font-family="Times,serif" font-size="14.00">government</text>
</g>
<!-- 65&#45;&#45;237 -->
<g id="edge4" class="edge">
<title>65&#45;&#45;237</title>
<path fill="none" stroke="black" d="M565.72,-610.18C555.86,-571.36 535.81,-467.66 583,-404.63 600.47,-381.31 629.96,-368.59 656.83,-361.67"/>
</g>
<!-- 66 -->
<g id="node6" class="node">
<title>66</title>
<ellipse fill="none" stroke="black" cx="979" cy="-557.95" rx="77.15" ry="16.03"/>
<text text-anchor="middle" x="979" y="-554.25" font-family="Times,serif" font-size="14.00">development</text>
</g>
<!-- 65&#45;&#45;66 -->
<g id="edge1" class="edge">
<title>65&#45;&#45;66</title>
<path fill="none" stroke="black" d="M604.52,-619.86C674.43,-608.49 833.44,-582.63 920.08,-568.54"/>
</g>
<!-- 70 -->
<g id="node8" class="node">
<title>70</title>
<ellipse fill="none" stroke="black" cx="1232" cy="-489.42" rx="52.15" ry="16.03"/>
<text text-anchor="middle" x="1232" y="-485.72" font-family="Times,serif" font-size="14.00">national</text>
</g>
<!-- 65&#45;&#45;70 -->
<g id="edge2" class="edge">
<title>65&#45;&#45;70</title>
<path fill="none" stroke="black" d="M600.04,-616.57C656.83,-599.98 784.03,-564 893,-541.69 995.92,-520.62 1118.07,-504.23 1184,-496.09"/>
</g>
<!-- 1040 -->
<g id="node10" class="node">
<title>1040</title>
<ellipse fill="none" stroke="black" cx="1349" cy="-78.26" rx="34.8" ry="16.03"/>
<text text-anchor="middle" x="1349" y="-74.56" font-family="Times,serif" font-size="14.00">time</text>
</g>
<!-- 65&#45;&#45;1040 -->
<g id="edge8" class="edge">
<title>65&#45;&#45;1040</title>
<path fill="none" stroke="black" d="M544.48,-614.34C439.63,-567.08 53.64,-377.31 185,-199.05 246,-116.27 304.78,-148.68 406,-130.53 585.74,-98.29 1166.64,-83.34 1314.5,-80"/>
</g>
<!-- 409 -->
<g id="node11" class="node">
<title>409</title>
<ellipse fill="none" stroke="black" cx="1379" cy="-215.32" rx="47.25" ry="16.03"/>
<text text-anchor="middle" x="1379" y="-211.62" font-family="Times,serif" font-size="14.00">society</text>
</g>
<!-- 65&#45;&#45;409 -->
<g id="edge6" class="edge">
<title>65&#45;&#45;409</title>
<path fill="none" stroke="black" d="M586.11,-611.64C606.58,-594.35 643.29,-564.29 677,-541.69 881.68,-404.43 929.51,-357.39 1159,-267.58 1218.35,-244.36 1290.99,-229.96 1336.15,-222.54"/>
</g>
<!-- 88 -->
<g id="node12" class="node">
<title>88</title>
<ellipse fill="none" stroke="black" cx="634" cy="-420.9" rx="42.35" ry="16.03"/>
<text text-anchor="middle" x="634" y="-417.2" font-family="Times,serif" font-size="14.00">public</text>
</g>
<!-- 65&#45;&#45;88 -->
<g id="edge3" class="edge">
<title>65&#45;&#45;88</title>
<path fill="none" stroke="black" d="M571.66,-609.85C575.02,-581.69 584,-520.93 603,-473.16 608.15,-460.21 616.4,-446.77 623.1,-436.91"/>
</g>
<!-- 316 -->
<g id="node13" class="node">
<title>316</title>
<ellipse fill="none" stroke="black" cx="1242" cy="-283.84" rx="43.27" ry="16.03"/>
<text text-anchor="middle" x="1242" y="-280.14" font-family="Times,serif" font-size="14.00">power</text>
</g>
<!-- 65&#45;&#45;316 -->
<g id="edge5" class="edge">
<title>65&#45;&#45;316</title>
<path fill="none" stroke="black" d="M594.73,-614.05C639.92,-593.09 738.75,-546.87 821,-505.69 973.77,-429.2 1154.74,-332.01 1218.42,-297.61"/>
</g>
<!-- 757 -->
<g id="node15" class="node">
<title>757</title>
<ellipse fill="none" stroke="black" cx="616" cy="-146.79" rx="45.01" ry="16.03"/>
<text text-anchor="middle" x="616" y="-143.09" font-family="Times,serif" font-size="14.00">people</text>
</g>
<!-- 65&#45;&#45;757 -->
<g id="edge7" class="edge">
<title>65&#45;&#45;757</title>
<path fill="none" stroke="black" d="M562.38,-610.21C557.82,-600.23 552.46,-586.78 550,-574.22 544.15,-544.32 549.22,-536.15 549,-505.69 548.89,-491.23 547.75,-487.56 549,-473.16 559.53,-351.93 598.22,-209.5 611.49,-163.18"/>
</g>
<!-- 0 -->
<g id="node2" class="node">
<title>0</title>
<ellipse fill="none" stroke="black" cx="842" cy="-1037.64" rx="32.55" ry="16.03"/>
<text text-anchor="middle" x="842" y="-1033.94" font-family="Times,serif" font-size="14.00">new</text>
</g>
<!-- 0&#45;&#45;65 -->
<g id="edge14" class="edge">
<title>0&#45;&#45;65</title>
<path fill="none" stroke="black" d="M809.09,-1037.12C748.63,-1036.8 617,-1030.44 518,-985.38 465.23,-961.35 418,-959.57 418,-901.59 418,-901.59 418,-901.59 418,-831.06 418,-743.5 509.39,-669.33 550.44,-640.43"/>
</g>
<!-- 4 -->
<g id="node3" class="node">
<title>4</title>
<ellipse fill="none" stroke="black" cx="877" cy="-969.11" rx="40.11" ry="16.03"/>
<text text-anchor="middle" x="877" y="-965.41" font-family="Times,serif" font-size="14.00">social</text>
</g>
<!-- 0&#45;&#45;4 -->
<g id="edge9" class="edge">
<title>0&#45;&#45;4</title>
<path fill="none" stroke="black" d="M849.94,-1021.54C855.67,-1010.66 863.37,-996.02 869.09,-985.15"/>
</g>
<!-- 0&#45;&#45;237 -->
<g id="edge18" class="edge">
<title>0&#45;&#45;237</title>
<path fill="none" stroke="black" d="M809.65,-1035.46C689.41,-1030.86 272.4,-1013.04 220,-985.38 177.58,-962.99 152,-949.55 152,-901.59 152,-901.59 152,-901.59 152,-625.48 152,-408.82 493.41,-364.57 645.44,-355.61"/>
</g>
<!-- 22 -->
<g id="node5" class="node">
<title>22</title>
<ellipse fill="none" stroke="black" cx="788" cy="-900.59" rx="41.94" ry="16.03"/>
<text text-anchor="middle" x="788" y="-896.89" font-family="Times,serif" font-size="14.00">policy</text>
</g>
<!-- 0&#45;&#45;22 -->
<g id="edge10" class="edge">
<title>0&#45;&#45;22</title>
<path fill="none" stroke="black" d="M835.91,-1021.41C825.54,-995.47 804.56,-943.01 794.15,-916.97"/>
</g>
<!-- 0&#45;&#45;66 -->
<g id="edge15" class="edge">
<title>0&#45;&#45;66</title>
<path fill="none" stroke="black" d="M814.62,-1028.67C793.09,-1021 764,-1007.3 747,-985.38 663.39,-877.55 714.94,-806.81 762,-678.74 774.32,-645.21 775.63,-631.92 804,-610.22 835.43,-586.17 877.89,-573.39 913.12,-566.6"/>
</g>
<!-- 34 -->
<g id="node7" class="node">
<title>34</title>
<ellipse fill="none" stroke="black" cx="847" cy="-695.01" rx="58.88" ry="16.03"/>
<text text-anchor="middle" x="847" y="-691.31" font-family="Times,serif" font-size="14.00">economic</text>
</g>
<!-- 0&#45;&#45;34 -->
<g id="edge13" class="edge">
<title>0&#45;&#45;34</title>
<path fill="none" stroke="black" d="M823.11,-1024.38C788.71,-1000.35 720.8,-944.16 737,-884.32 756.19,-813.42 809.47,-741.83 834.15,-711.32"/>
</g>
<!-- 0&#45;&#45;70 -->
<g id="edge16" class="edge">
<title>0&#45;&#45;70</title>
<path fill="none" stroke="black" d="M874.52,-1035.18C999.4,-1027.62 1450.15,-981.82 1630,-711.27 1720.77,-574.72 1402.91,-514.44 1279.22,-496.5"/>
</g>
<!-- 24 -->
<g id="node9" class="node">
<title>24</title>
<ellipse fill="none" stroke="black" cx="968" cy="-832.06" rx="38.78" ry="16.03"/>
<text text-anchor="middle" x="968" y="-828.36" font-family="Times,serif" font-size="14.00">party</text>
</g>
<!-- 0&#45;&#45;24 -->
<g id="edge11" class="edge">
<title>0&#45;&#45;24</title>
<path fill="none" stroke="black" d="M867.27,-1027.24C886.12,-1018.98 911.09,-1005.16 926,-985.38 957.87,-943.1 965.56,-878 967.41,-848.51"/>
</g>
<!-- 0&#45;&#45;1040 -->
<g id="edge22" class="edge">
<title>0&#45;&#45;1040</title>
<path fill="none" stroke="black" d="M874.62,-1036.36C1018.28,-1034.89 1595.24,-1026.51 1771,-985.38 1859.68,-964.62 1958,-992.66 1958,-901.59 1958,-901.59 1958,-901.59 1958,-214.32 1958,-95.87 1513.33,-81.24 1383.93,-79.49"/>
</g>
<!-- 0&#45;&#45;409 -->
<g id="edge20" class="edge">
<title>0&#45;&#45;409</title>
<path fill="none" stroke="black" d="M874.56,-1036.07C1054.57,-1032.51 1920,-1009.75 1920,-901.59 1920,-901.59 1920,-901.59 1920,-556.95 1920,-383.16 1808.87,-352.08 1657,-267.58 1583.66,-226.78 1484.26,-217.61 1426.34,-216.02"/>
</g>
<!-- 0&#45;&#45;88 -->
<g id="edge17" class="edge">
<title>0&#45;&#45;88</title>
<path fill="none" stroke="black" d="M809.22,-1036.92C677.01,-1037.18 190,-1029.47 190,-901.59 190,-901.59 190,-901.59 190,-625.48 190,-449.94 480.3,-425.18 591.43,-422.13"/>
</g>
<!-- 0&#45;&#45;316 -->
<g id="edge19" class="edge">
<title>0&#45;&#45;316</title>
<path fill="none" stroke="black" d="M874.27,-1035.09C943.94,-1031.2 1113.31,-1018.82 1251,-985.38 1508.64,-922.8 1659.23,-997.19 1811,-779.8 1844.37,-732 1885.31,-690.41 1667,-473.16 1553.45,-360.16 1360.47,-309.18 1279.51,-291.98"/>
</g>
<!-- 33 -->
<g id="node14" class="node">
<title>33</title>
<ellipse fill="none" stroke="black" cx="1010" cy="-763.53" rx="48.17" ry="16.03"/>
<text text-anchor="middle" x="1010" y="-759.83" font-family="Times,serif" font-size="14.00">politics</text>
</g>
<!-- 0&#45;&#45;33 -->
<g id="edge12" class="edge">
<title>0&#45;&#45;33</title>
<path fill="none" stroke="black" d="M869.62,-1029.05C893.22,-1021.37 926.77,-1007.43 949,-985.38 997.13,-937.62 1000.72,-914.38 1016,-848.32 1021.42,-824.88 1017.36,-796.85 1013.79,-779.88"/>
</g>
<!-- 0&#45;&#45;757 -->
<g id="edge21" class="edge">
<title>0&#45;&#45;757</title>
<path fill="none" stroke="black" d="M809.55,-1035.84C692.21,-1032.68 290.31,-1019.56 167,-985.38 86.98,-963.19 0,-984.63 0,-901.59 0,-901.59 0,-901.59 0,-351.37 0,-261.5 53.06,-240.12 133,-199.05 208.76,-160.13 465.68,-150.72 570.71,-148.48"/>
</g>
<!-- 4&#45;&#45;65 -->
<g id="edge27" class="edge">
<title>4&#45;&#45;65</title>
<path fill="none" stroke="black" d="M842.5,-960.66C812.68,-953.06 769.4,-939.17 737,-916.85 641.89,-851.31 613.43,-821.21 578,-711.27 570.6,-688.32 569.42,-660.15 569.51,-643.01"/>
</g>
<!-- 4&#45;&#45;237 -->
<g id="edge31" class="edge">
<title>4&#45;&#45;237</title>
<path fill="none" stroke="black" d="M836.44,-967.84C699.97,-965.84 266,-950.25 266,-833.06 266,-833.06 266,-833.06 266,-762.53 266,-572 330.72,-488.1 502,-404.63 550.47,-381.02 610.49,-367.88 654.79,-360.84"/>
</g>
<!-- 4&#45;&#45;22 -->
<g id="edge23" class="edge">
<title>4&#45;&#45;22</title>
<path fill="none" stroke="black" d="M858.56,-954.33C843.28,-942.91 821.69,-926.77 806.42,-915.35"/>
</g>
<!-- 4&#45;&#45;66 -->
<g id="edge28" class="edge">
<title>4&#45;&#45;66</title>
<path fill="none" stroke="black" d="M901.02,-955.89C947.67,-930.58 1049.18,-867.37 1086,-779.8 1115.86,-708.77 1100.49,-668.42 1050,-610.22 1037.15,-595.4 1019.22,-582.5 1004.59,-573.35"/>
</g>
<!-- 4&#45;&#45;34 -->
<g id="edge26" class="edge">
<title>4&#45;&#45;34</title>
<path fill="none" stroke="black" d="M875.3,-952.7C870.03,-904.92 854.01,-759.59 848.72,-711.58"/>
</g>
<!-- 4&#45;&#45;70 -->
<g id="edge29" class="edge">
<title>4&#45;&#45;70</title>
<path fill="none" stroke="black" d="M907.82,-958.46C933.2,-949.72 969.51,-935.4 998,-916.85 1105.08,-847.11 1133.48,-820.98 1199,-711.27 1238.92,-644.42 1251.21,-619.12 1243,-541.69 1241.71,-529.56 1238.76,-516.08 1236.24,-505.99"/>
</g>
<!-- 4&#45;&#45;24 -->
<g id="edge24" class="edge">
<title>4&#45;&#45;24</title>
<path fill="none" stroke="black" d="M887.09,-953.14C904.58,-927.18 940.35,-874.1 957.87,-848.1"/>
</g>
<!-- 4&#45;&#45;1040 -->
<g id="edge35" class="edge">
<title>4&#45;&#45;1040</title>
<path fill="none" stroke="black" d="M916.71,-966.11C1103.07,-955.64 1882,-899.7 1882,-696.01 1882,-696.01 1882,-696.01 1882,-214.32 1882,-158.68 1839.69,-153.45 1789,-130.53 1716.56,-97.77 1474.14,-84.49 1383.55,-80.59"/>
</g>
<!-- 4&#45;&#45;409 -->
<g id="edge33" class="edge">
<title>4&#45;&#45;409</title>
<path fill="none" stroke="black" d="M915.37,-963.86C977.78,-956.58 1105.01,-940.2 1211,-916.85 1430.88,-868.4 1560.16,-905.52 1674,-711.27 1755.18,-572.74 1655.55,-288.87 1635,-267.58 1606.55,-238.1 1490.66,-224.7 1424.98,-219.36"/>
</g>
<!-- 4&#45;&#45;88 -->
<g id="edge30" class="edge">
<title>4&#45;&#45;88</title>
<path fill="none" stroke="black" d="M838.72,-963.62C799.06,-957.65 736.35,-944.45 689,-916.85 589.67,-858.96 577.78,-816.73 532,-711.27 501.91,-641.96 500.09,-614.57 520,-541.69 528.96,-508.89 531.31,-498.48 554,-473.16 569.08,-456.33 590.93,-442.83 607.99,-433.92"/>
</g>
<!-- 4&#45;&#45;316 -->
<g id="edge32" class="edge">
<title>4&#45;&#45;316</title>
<path fill="none" stroke="black" d="M913.26,-961.81C1054,-936.53 1560.82,-837.75 1652,-711.27 1784.72,-527.15 1382.74,-343.13 1270.34,-296.25"/>
</g>
<!-- 4&#45;&#45;33 -->
<g id="edge25" class="edge">
<title>4&#45;&#45;33</title>
<path fill="none" stroke="black" d="M877.59,-952.57C879.47,-922.92 887.31,-857.56 920,-815.8 934.63,-797.1 958.1,-784.06 977.41,-775.81"/>
</g>
<!-- 4&#45;&#45;757 -->
<g id="edge34" class="edge">
<title>4&#45;&#45;757</title>
<path fill="none" stroke="black" d="M836.63,-968.53C721.79,-969.09 395.6,-966.19 303,-916.85 128.33,-823.78 38,-756.87 38,-558.95 38,-558.95 38,-558.95 38,-488.42 38,-345.17 60.58,-278.19 180,-199.05 243.29,-157.11 472.18,-149.4 570.55,-148.05"/>
</g>
<!-- 237&#45;&#45;1040 -->
<g id="edge39" class="edge">
<title>237&#45;&#45;1040</title>
<path fill="none" stroke="black" d="M727.83,-336.24C758.31,-295 849.57,-180.35 956,-130.53 1019.56,-100.77 1231.38,-85.89 1314.81,-81.07"/>
</g>
<!-- 237&#45;&#45;409 -->
<g id="edge37" class="edge">
<title>237&#45;&#45;409</title>
<path fill="none" stroke="black" d="M742.21,-337.06C777.44,-317.8 843.93,-284.05 905,-267.58 1057.24,-226.51 1245.38,-218.18 1331.69,-216.6"/>
</g>
<!-- 237&#45;&#45;316 -->
<g id="edge36" class="edge">
<title>237&#45;&#45;316</title>
<path fill="none" stroke="black" d="M778.51,-343.58C887.22,-329.8 1110.45,-301.51 1201.74,-289.95"/>
</g>
<!-- 237&#45;&#45;757 -->
<g id="edge38" class="edge">
<title>237&#45;&#45;757</title>
<path fill="none" stroke="black" d="M709.41,-336.07C690.65,-298.25 642.25,-200.71 623.54,-162.99"/>
</g>
<!-- 22&#45;&#45;65 -->
<g id="edge43" class="edge">
<title>22&#45;&#45;65</title>
<path fill="none" stroke="black" d="M768.9,-886.08C730.55,-857.98 643.89,-789.3 597,-711.27 583.85,-689.39 576.37,-660.4 572.75,-642.89"/>
</g>
<!-- 22&#45;&#45;237 -->
<g id="edge47" class="edge">
<title>22&#45;&#45;237</title>
<path fill="none" stroke="black" d="M752.33,-892.1C719.96,-884.31 671.66,-870.16 634,-848.32 515.39,-779.56 459.99,-767.89 404,-642.74 352.23,-527.04 450.84,-467.35 561,-404.63 594.2,-385.73 635.38,-372.57 667.1,-364.32"/>
</g>
<!-- 22&#45;&#45;66 -->
<g id="edge44" class="edge">
<title>22&#45;&#45;66</title>
<path fill="none" stroke="black" d="M782.27,-884.39C769.06,-846.66 740.46,-746.88 779,-678.74 812.08,-620.26 886.35,-587.26 934.49,-571.27"/>
</g>
<!-- 22&#45;&#45;34 -->
<g id="edge42" class="edge">
<title>22&#45;&#45;34</title>
<path fill="none" stroke="black" d="M792.43,-884.28C803.37,-846.56 831.53,-749.4 842.51,-711.48"/>
</g>
<!-- 22&#45;&#45;70 -->
<g id="edge45" class="edge">
<title>22&#45;&#45;70</title>
<path fill="none" stroke="black" d="M827.78,-895.39C874.47,-889.4 953.46,-875.93 1016,-848.32 1064.62,-826.86 1075.7,-816.64 1114,-779.8 1189.14,-707.52 1205.15,-676.16 1227,-574.22 1232.04,-550.7 1232.66,-522.69 1232.46,-505.75"/>
</g>
<!-- 22&#45;&#45;24 -->
<g id="edge40" class="edge">
<title>22&#45;&#45;24</title>
<path fill="none" stroke="black" d="M817.32,-888.75C851.19,-876.23 906.52,-855.78 939.88,-843.45"/>
</g>
<!-- 22&#45;&#45;1040 -->
<g id="edge50" class="edge">
<title>22&#45;&#45;1040</title>
<path fill="none" stroke="black" d="M748.84,-894.55C704.52,-887.9 630.85,-873.9 572,-848.32 383.65,-766.45 322.03,-739.4 200,-574.22 99.35,-437.98 60.81,-352.28 133,-199.05 153.39,-155.78 171.36,-147.72 216,-130.53 320.56,-90.25 1134.94,-81.07 1314.18,-79.53"/>
</g>
<!-- 22&#45;&#45;409 -->
<g id="edge49" class="edge">
<title>22&#45;&#45;409</title>
<path fill="none" stroke="black" d="M827.15,-894.59C956.22,-877.77 1362.43,-821.9 1403,-779.8 1556.22,-620.81 1420.89,-304.7 1386.47,-231.64"/>
</g>
<!-- 22&#45;&#45;88 -->
<g id="edge46" class="edge">
<title>22&#45;&#45;88</title>
<path fill="none" stroke="black" d="M758.17,-888.87C735.72,-879.98 704.84,-865.97 681,-848.32 588.59,-779.93 558.04,-752.55 524,-642.74 498.38,-560.1 581.68,-470.37 617.96,-436.2"/>
</g>
<!-- 22&#45;&#45;316 -->
<g id="edge48" class="edge">
<title>22&#45;&#45;316</title>
<path fill="none" stroke="black" d="M828.65,-896.51C870.19,-893.37 936.59,-888.41 994,-884.32 1111.09,-875.99 1417.82,-904.3 1521,-848.32 1570.4,-821.52 1561.08,-790.49 1597,-747.27 1610.87,-730.58 1622.13,-731.5 1630,-711.27 1700.81,-529.24 1897.5,-850.23 1314,-336.11 1297.88,-321.91 1277.86,-307.91 1263.02,-298.13"/>
</g>
<!-- 22&#45;&#45;33 -->
<g id="edge41" class="edge">
<title>22&#45;&#45;33</title>
<path fill="none" stroke="black" d="M801.39,-884.84C818.59,-866.61 850.03,-835.59 882,-815.8 911.41,-797.58 948.4,-783.6 975.04,-774.87"/>
</g>
<!-- 66&#45;&#45;237 -->
<g id="edge53" class="edge">
<title>66&#45;&#45;237</title>
<path fill="none" stroke="black" d="M962.12,-542.07C930.14,-514.1 858.16,-452.22 794,-404.63 776.33,-391.53 755.52,-377.77 739.99,-367.81"/>
</g>
<!-- 66&#45;&#45;70 -->
<g id="edge51" class="edge">
<title>66&#45;&#45;70</title>
<path fill="none" stroke="black" d="M1025.11,-544.83C1073.43,-532.12 1148.46,-512.39 1193.65,-500.51"/>
</g>
<!-- 66&#45;&#45;1040 -->
<g id="edge57" class="edge">
<title>66&#45;&#45;1040</title>
<path fill="none" stroke="black" d="M984.34,-541.71C990.57,-524.6 1001.6,-496.21 1014,-473.16 1031.37,-440.86 1039.04,-434.74 1060,-404.63 1102.95,-342.97 1110.15,-324.68 1159,-267.58 1218.93,-197.53 1300.16,-122.89 1333.62,-92.9"/>
</g>
<!-- 66&#45;&#45;409 -->
<g id="edge55" class="edge">
<title>66&#45;&#45;409</title>
<path fill="none" stroke="black" d="M989.79,-541.57C1030.87,-483.08 1175.95,-277.25 1190,-267.58 1233.13,-237.9 1292.76,-225.37 1333.44,-220.11"/>
</g>
<!-- 66&#45;&#45;88 -->
<g id="edge52" class="edge">
<title>66&#45;&#45;88</title>
<path fill="none" stroke="black" d="M944.34,-543.38C876.16,-516.69 725.78,-457.82 662.71,-433.14"/>
</g>
<!-- 66&#45;&#45;316 -->
<g id="edge54" class="edge">
<title>66&#45;&#45;316</title>
<path fill="none" stroke="black" d="M1003.37,-542.44C1018.25,-532.97 1037.19,-519.78 1052,-505.69 1121.18,-439.83 1118.6,-405.72 1184,-336.11 1196.7,-322.59 1212.56,-308.75 1224.49,-298.86"/>
</g>
<!-- 66&#45;&#45;757 -->
<g id="edge56" class="edge">
<title>66&#45;&#45;757</title>
<path fill="none" stroke="black" d="M967.43,-541.68C954.56,-524.78 933.08,-496.8 914,-473.16 864.07,-411.28 852.3,-395.12 799,-336.11 738.8,-269.46 662.88,-193.87 631.09,-162.57"/>
</g>
<!-- 34&#45;&#45;65 -->
<g id="edge58" class="edge">
<title>34&#45;&#45;65</title>
<path fill="none" stroke="black" d="M804.33,-683.76C748.48,-670.34 651.86,-647.14 601.93,-635.15"/>
</g>
<!-- 34&#45;&#45;237 -->
<g id="edge62" class="edge">
<title>34&#45;&#45;237</title>
<path fill="none" stroke="black" d="M841.08,-678.48C819.37,-621.61 744.33,-424.98 722.81,-368.59"/>
</g>
<!-- 34&#45;&#45;66 -->
<g id="edge59" class="edge">
<title>34&#45;&#45;66</title>
<path fill="none" stroke="black" d="M861.63,-679.04C887,-653.08 938.89,-599.99 964.3,-573.99"/>
</g>
<!-- 34&#45;&#45;70 -->
<g id="edge60" class="edge">
<title>34&#45;&#45;70</title>
<path fill="none" stroke="black" d="M886.06,-682.71C943.66,-665 1053.49,-627.17 1136,-574.22 1167.84,-553.78 1199.97,-523.26 1217.81,-505.25"/>
</g>
<!-- 34&#45;&#45;1040 -->
<g id="edge66" class="edge">
<title>34&#45;&#45;1040</title>
<path fill="none" stroke="black" d="M903.55,-690.62C1081.14,-676.63 1616,-607.72 1616,-284.84 1616,-284.84 1616,-284.84 1616,-214.32 1616,-111.2 1455.47,-86.8 1383.36,-81.04"/>
</g>
<!-- 34&#45;&#45;409 -->
<g id="edge64" class="edge">
<title>34&#45;&#45;409</title>
<path fill="none" stroke="black" d="M894.56,-685.41C935.78,-677.12 996.56,-662.87 1047,-642.74 1163.25,-596.36 1192.46,-580.23 1293,-505.69 1328.23,-479.57 1345.5,-476.92 1364,-437.16 1396.91,-366.43 1387.06,-269.01 1381.57,-231.7"/>
</g>
<!-- 34&#45;&#45;88 -->
<g id="edge61" class="edge">
<title>34&#45;&#45;88</title>
<path fill="none" stroke="black" d="M810.82,-682.11C789.84,-673.76 764.07,-660.82 746,-642.74 683.69,-580.42 649.35,-476.29 638.15,-437.28"/>
</g>
<!-- 34&#45;&#45;316 -->
<g id="edge63" class="edge">
<title>34&#45;&#45;316</title>
<path fill="none" stroke="black" d="M870.93,-680.06C900.06,-663.19 950.83,-634.06 995,-610.22 1025.78,-593.59 1039.36,-598.02 1065,-574.22 1156.48,-489.26 1217.83,-346.56 1236.22,-300.02"/>
</g>
<!-- 34&#45;&#45;757 -->
<g id="edge65" class="edge">
<title>34&#45;&#45;757</title>
<path fill="none" stroke="black" d="M788.74,-692.79C643.14,-686.35 275,-647.75 275,-421.9 275,-421.9 275,-421.9 275,-282.84 275,-218.61 486.79,-171.74 576.55,-154.76"/>
</g>
<!-- 70&#45;&#45;237 -->
<g id="edge68" class="edge">
<title>70&#45;&#45;237</title>
<path fill="none" stroke="black" d="M1193.29,-478.27C1099.72,-453.74 861.65,-391.3 761.97,-365.16"/>
</g>
<!-- 70&#45;&#45;1040 -->
<g id="edge72" class="edge">
<title>70&#45;&#45;1040</title>
<path fill="none" stroke="black" d="M1265.18,-476.83C1351.78,-445.56 1578,-356.98 1578,-284.84 1578,-284.84 1578,-284.84 1578,-214.32 1578,-124.54 1445.81,-93.23 1382.3,-83.36"/>
</g>
<!-- 70&#45;&#45;409 -->
<g id="edge70" class="edge">
<title>70&#45;&#45;409</title>
<path fill="none" stroke="black" d="M1240.32,-473.02C1266.2,-425.12 1345.02,-279.22 1370.77,-231.56"/>
</g>
<!-- 70&#45;&#45;88 -->
<g id="edge67" class="edge">
<title>70&#45;&#45;88</title>
<path fill="none" stroke="black" d="M1183.82,-483.07C1068.89,-470.28 780.34,-438.18 674.09,-426.36"/>
</g>
<!-- 70&#45;&#45;316 -->
<g id="edge69" class="edge">
<title>70&#45;&#45;316</title>
<path fill="none" stroke="black" d="M1232.75,-473.12C1234.6,-435.4 1239.38,-338.24 1241.24,-300.32"/>
</g>
<!-- 70&#45;&#45;757 -->
<g id="edge71" class="edge">
<title>70&#45;&#45;757</title>
<path fill="none" stroke="black" d="M1217.78,-473.6C1196.79,-450.11 1160,-402 1160,-353.37 1160,-353.37 1160,-353.37 1160,-282.84 1160,-180.3 791.32,-155.06 660.98,-149.35"/>
</g>
<!-- 24&#45;&#45;65 -->
<g id="edge75" class="edge">
<title>24&#45;&#45;65</title>
<path fill="none" stroke="black" d="M932.17,-825.74C866.69,-814.52 725.84,-783.27 632,-711.27 607.31,-692.32 587.81,-661.01 577.67,-642.5"/>
</g>
<!-- 24&#45;&#45;237 -->
<g id="edge79" class="edge">
<title>24&#45;&#45;237</title>
<path fill="none" stroke="black" d="M963.67,-815.55C955.64,-787.58 937.19,-727.09 915,-678.74 856.26,-550.74 834.12,-521.82 756,-404.63 747.69,-392.17 737.39,-378.71 729.47,-368.71"/>
</g>
<!-- 24&#45;&#45;66 -->
<g id="edge76" class="edge">
<title>24&#45;&#45;66</title>
<path fill="none" stroke="black" d="M1001.4,-823.43C1024.22,-816.3 1052.82,-803.11 1067,-779.8 1110.65,-708.04 1029.3,-610.81 994.09,-573.95"/>
</g>
<!-- 24&#45;&#45;34 -->
<g id="edge74" class="edge">
<title>24&#45;&#45;34</title>
<path fill="none" stroke="black" d="M954,-816.38C944.35,-806.2 931.28,-792.28 920,-779.8 898.53,-756.03 874.21,-727.85 859.76,-710.98"/>
</g>
<!-- 24&#45;&#45;70 -->
<g id="edge77" class="edge">
<title>24&#45;&#45;70</title>
<path fill="none" stroke="black" d="M1000.81,-823.17C1026.5,-815.61 1061.81,-802 1086,-779.8 1173.87,-699.11 1216.33,-553.61 1228.33,-505.98"/>
</g>
<!-- 24&#45;&#45;1040 -->
<g id="edge83" class="edge">
<title>24&#45;&#45;1040</title>
<path fill="none" stroke="black" d="M1006.93,-830.63C1084.02,-828.87 1260.96,-820.34 1403,-779.8 1540.85,-740.44 1594.34,-744.82 1695,-642.74 1815.98,-520.06 1844,-457.14 1844,-284.84 1844,-284.84 1844,-284.84 1844,-214.32 1844,-152.86 1790.8,-153.99 1734,-130.53 1670.66,-104.37 1465.21,-87.43 1383.24,-81.56"/>
</g>
<!-- 24&#45;&#45;409 -->
<g id="edge81" class="edge">
<title>24&#45;&#45;409</title>
<path fill="none" stroke="black" d="M1006.85,-830.02C1151.97,-823.89 1654,-781.63 1654,-490.42 1654,-490.42 1654,-490.42 1654,-351.37 1654,-250.84 1504.11,-225.14 1425.65,-218.57"/>
</g>
<!-- 24&#45;&#45;88 -->
<g id="edge78" class="edge">
<title>24&#45;&#45;88</title>
<path fill="none" stroke="black" d="M947.35,-818C930.98,-807.65 907.52,-792.8 887,-779.8 804.44,-727.48 773.36,-721.15 715,-642.74 674.28,-588.03 664.28,-571.39 646,-505.69 639.5,-482.33 636.4,-454.27 635.01,-437.28"/>
</g>
<!-- 24&#45;&#45;316 -->
<g id="edge80" class="edge">
<title>24&#45;&#45;316</title>
<path fill="none" stroke="black" d="M1002.83,-824.8C1034.22,-817.85 1080.45,-804.24 1114,-779.8 1164.11,-743.29 1272.48,-621.26 1311,-505.69 1334.98,-433.74 1330.68,-401.35 1292,-336.11 1283.5,-321.78 1270.2,-308.4 1259.46,-298.91"/>
</g>
<!-- 24&#45;&#45;33 -->
<g id="edge73" class="edge">
<title>24&#45;&#45;33</title>
<path fill="none" stroke="black" d="M977.53,-815.96C984.4,-805.08 993.64,-790.44 1000.51,-779.57"/>
</g>
<!-- 24&#45;&#45;757 -->
<g id="edge82" class="edge">
<title>24&#45;&#45;757</title>
<path fill="none" stroke="black" d="M931.57,-826.2C877.47,-818.58 772.94,-802.35 686,-779.8 467.67,-723.16 335.17,-769.33 222,-574.22 138.34,-429.98 84.63,-293.55 222,-199.05 277.77,-160.69 479.58,-151.02 570.74,-148.6"/>
</g>
<!-- 409&#45;&#45;1040 -->
<g id="edge85" class="edge">
<title>409&#45;&#45;1040</title>
<path fill="none" stroke="black" d="M1375.62,-199.09C1369.86,-173.15 1358.2,-120.69 1352.42,-94.64"/>
</g>
<!-- 409&#45;&#45;757 -->
<g id="edge84" class="edge">
<title>409&#45;&#45;757</title>
<path fill="none" stroke="black" d="M1334.69,-209.56C1305.06,-206.43 1265.21,-202.33 1230,-199.05 1016.45,-179.2 760.77,-159 659.95,-151.17"/>
</g>
<!-- 88&#45;&#45;237 -->
<g id="edge86" class="edge">
<title>88&#45;&#45;237</title>
<path fill="none" stroke="black" d="M651.6,-405.79C665.4,-394.73 684.55,-379.38 698.56,-368.15"/>
</g>
<!-- 88&#45;&#45;1040 -->
<g id="edge90" class="edge">
<title>88&#45;&#45;1040</title>
<path fill="none" stroke="black" d="M593.54,-416C523.96,-406.82 389,-377.13 389,-284.84 389,-284.84 389,-284.84 389,-214.32 389,-128.88 479.4,-152.33 562,-130.53 707.3,-92.18 1182.01,-81.9 1314.43,-79.75"/>
</g>
<!-- 88&#45;&#45;409 -->
<g id="edge88" class="edge">
<title>88&#45;&#45;409</title>
<path fill="none" stroke="black" d="M668.45,-411.16C702.28,-402.13 755.07,-386.81 799,-368.63 827.75,-356.74 833.39,-350.46 861,-336.11 920,-305.43 930.55,-287.49 994,-267.58 1111.9,-230.58 1258.28,-220.29 1331.96,-217.42"/>
</g>
<!-- 88&#45;&#45;316 -->
<g id="edge87" class="edge">
<title>88&#45;&#45;316</title>
<path fill="none" stroke="black" d="M669.76,-411.95C777.44,-388.04 1097.78,-316.88 1205.9,-292.86"/>
</g>
<!-- 88&#45;&#45;757 -->
<g id="edge89" class="edge">
<title>88&#45;&#45;757</title>
<path fill="none" stroke="black" d="M632.98,-404.49C629.82,-356.71 620.21,-211.38 617.03,-163.37"/>
</g>
<!-- 316&#45;&#45;1040 -->
<g id="edge93" class="edge">
<title>316&#45;&#45;1040</title>
<path fill="none" stroke="black" d="M1250.04,-267.54C1269.97,-229.63 1321.44,-131.7 1341.16,-94.19"/>
</g>
<!-- 316&#45;&#45;409 -->
<g id="edge91" class="edge">
<title>316&#45;&#45;409</title>
<path fill="none" stroke="black" d="M1267.45,-270.49C1291.75,-258.69 1328.2,-240.99 1352.76,-229.06"/>
</g>
<!-- 316&#45;&#45;757 -->
<g id="edge92" class="edge">
<title>316&#45;&#45;757</title>
<path fill="none" stroke="black" d="M1234.57,-267.62C1224.08,-247.98 1202.92,-214.49 1174,-199.05 1085.6,-151.87 778.15,-147.43 661.43,-147.49"/>
</g>
<!-- 33&#45;&#45;65 -->
<g id="edge95" class="edge">
<title>33&#45;&#45;65</title>
<path fill="none" stroke="black" d="M968.16,-755.37C921.47,-746.89 843.95,-731.35 779,-711.27 710.65,-690.14 633.22,-656.4 594.62,-638.88"/>
</g>
<!-- 33&#45;&#45;237 -->
<g id="edge99" class="edge">
<title>33&#45;&#45;237</title>
<path fill="none" stroke="black" d="M1020.87,-747.54C1046.44,-710.29 1105.28,-611.51 1065,-541.69 1034.6,-488.99 882.01,-432.65 828,-404.63 801.81,-391.05 771.33,-377.1 748.95,-367.19"/>
</g>
<!-- 33&#45;&#45;66 -->
<g id="edge96" class="edge">
<title>33&#45;&#45;66</title>
<path fill="none" stroke="black" d="M1007.67,-747.23C1001.92,-709.5 987.13,-612.34 981.36,-574.43"/>
</g>
<!-- 33&#45;&#45;34 -->
<g id="edge94" class="edge">
<title>33&#45;&#45;34</title>
<path fill="none" stroke="black" d="M980.48,-750.49C951.67,-738.73 908,-720.9 878.52,-708.87"/>
</g>
<!-- 33&#45;&#45;70 -->
<g id="edge97" class="edge">
<title>33&#45;&#45;70</title>
<path fill="none" stroke="black" d="M1025.99,-747.77C1036.55,-737.78 1050.5,-724.12 1062,-711.27 1127.5,-638.07 1196.02,-542.1 1221.58,-505.49"/>
</g>
<!-- 33&#45;&#45;1040 -->
<g id="edge103" class="edge">
<title>33&#45;&#45;1040</title>
<path fill="none" stroke="black" d="M1055.08,-757.6C1223.47,-736.46 1806,-637.8 1806,-284.84 1806,-284.84 1806,-284.84 1806,-214.32 1806,-126.1 1488.89,-91.14 1382.98,-81.92"/>
</g>
<!-- 33&#45;&#45;409 -->
<g id="edge101" class="edge">
<title>33&#45;&#45;409</title>
<path fill="none" stroke="black" d="M1048.96,-753.8C1133.51,-733.43 1337.5,-676.6 1478,-574.22 1542.03,-527.55 1565.06,-511.67 1592,-437.16 1617.32,-367.13 1529.64,-279.33 1516,-267.58 1488.59,-243.96 1449.24,-230.75 1419.74,-223.68"/>
</g>
<!-- 33&#45;&#45;88 -->
<g id="edge98" class="edge">
<title>33&#45;&#45;88</title>
<path fill="none" stroke="black" d="M993.84,-747.9C932,-691.87 710.7,-491.38 649.68,-436.1"/>
</g>
<!-- 33&#45;&#45;316 -->
<g id="edge100" class="edge">
<title>33&#45;&#45;316</title>
<path fill="none" stroke="black" d="M1035.65,-749.61C1095.26,-717.88 1241.95,-629.61 1293,-505.69 1323.43,-431.83 1273.53,-336.24 1251.57,-299.82"/>
</g>
<!-- 33&#45;&#45;757 -->
<g id="edge102" class="edge">
<title>33&#45;&#45;757</title>
<path fill="none" stroke="black" d="M966.16,-756.78C903.85,-748.33 786.19,-731.37 687,-711.27 439.87,-661.18 199,-674.05 199,-421.9 199,-421.9 199,-421.9 199,-282.84 199,-217.43 259.46,-223.84 320,-199.05 404.47,-164.47 511.77,-153.22 571.22,-149.55"/>
</g>
<!-- 757&#45;&#45;1040 -->
<g id="edge104" class="edge">
<title>757&#45;&#45;1040</title>
<path fill="none" stroke="black" d="M655.81,-139.05C674.11,-136.13 696.11,-132.85 716,-130.53 943.79,-103.95 1219.3,-86.72 1314.61,-81.19"/>
</g>
</g>
</svg>
